<svg width="620" height="620" viewBox="0 0 620 620" fill="none" xmlns="http://www.w3.org/2000/svg">
<g clip-path="url(#clip0_1_49)">
<path d="M218.31 143.38C218.31 165.471 236.218 183.38 258.31 183.38H361.69C383.782 183.38 401.69 165.471 401.69 143.38V0H436.62V143.38C436.62 165.471 454.529 183.38 476.62 183.38H620V218.31H476.62C454.529 218.31 436.62 236.218 436.62 258.31V361.69C436.62 383.782 454.529 401.69 476.62 401.69H620V436.62H476.62C454.529 436.62 436.62 454.529 436.62 476.62V620H401.69V476.62C401.69 454.529 383.782 436.62 361.69 436.62H258.31C236.218 436.62 218.31 454.529 218.31 476.62V620H183.38V476.62C183.38 454.529 165.471 436.62 143.38 436.62H0V401.69H143.38C165.471 401.69 183.38 383.782 183.38 361.69V258.31C183.38 236.218 165.471 218.31 143.38 218.31H0V183.38H143.38C165.471 183.38 183.38 165.471 183.38 143.38V0H218.31V143.38ZM258.31 218.31C236.218 218.31 218.31 236.218 218.31 258.31V361.69C218.31 383.782 236.218 401.69 258.31 401.69H361.69C383.782 401.69 401.69 383.782 401.69 361.69V258.31C401.69 236.218 383.782 218.31 361.69 218.31H258.31Z" fill="#379EFF"/>
</g>
<defs>
<clipPath id="clip0_1_49">
<rect width="620" height="620" fill="white"/>
</clipPath>
</defs>
</svg>
